<svg width="84" height="58" viewBox="0 0 84 58" fill="none" xmlns="http://www.w3.org/2000/svg">
<g clip-path="url(#clip0_84_2461)">
<path d="M42.0103 11.6289H1.92822V56.0472H42.0103V11.6289Z" fill="#C5BCE1" stroke="#212529" stroke-width="1.5" stroke-linecap="round" stroke-linejoin="round"/>
<path d="M41.9897 56.068H82.0718V11.6497H41.9897V56.068Z" fill="#C5BCE1" stroke="#212529" stroke-width="1.5" stroke-linecap="round" stroke-linejoin="round"/>
<path d="M7.51025 6.34598V51.1535C7.51025 51.1535 15.914 45.6412 42.0106 51.1535V13.8811C42.0106 4.76805 7.51025 6.34598 7.51025 6.34598Z" fill="white" stroke="#212529" stroke-width="1.5" stroke-linecap="round" stroke-linejoin="round"/>
<path d="M42.0107 13.8811V51.1535C68.1073 45.6412 76.5111 51.1535 76.5111 51.1535V6.34598C76.5111 6.34598 42.0107 4.76805 42.0107 13.8811Z" fill="white" stroke="#212529" stroke-width="1.5" stroke-linecap="round" stroke-linejoin="round"/>
<path d="M42.0106 11.9903C30.197 -0.779079 13.0713 2.2447 13.0713 2.2447V44.9113C13.0713 44.9113 24.5945 39.8091 42.0106 51.1535C59.4199 39.8091 70.95 44.9113 70.95 44.9113V2.2447C70.95 2.2447 53.8243 -0.779079 42.0106 11.9903Z" fill="white" stroke="#212529" stroke-width="1.5" stroke-linecap="round" stroke-linejoin="round"/>
<path d="M37.9986 31.2869C37.7911 29.8549 37.8811 28.5829 38.2546 27.4707C38.635 26.3168 39.1537 25.288 39.8108 24.3843C40.5025 23.4459 41.208 22.5909 41.9342 21.8193C42.6605 21.0199 43.2622 20.2484 43.7464 19.5185C44.2651 18.7538 44.5211 17.9823 44.5211 17.2176C44.5211 16.453 44.3827 15.876 44.1061 15.3895C43.8294 14.9029 43.4144 14.5345 42.8611 14.2912C42.3423 14.0479 41.7406 13.9228 41.0489 13.9228C40.1151 13.9228 39.2713 14.1521 38.5105 14.604C37.7842 15.021 37.058 15.598 36.3317 16.3279L32.1333 12.456C33.3783 11.0588 34.8308 9.9258 36.4839 9.0569C38.1439 8.15324 39.9906 7.69446 42.0241 7.69446C43.8571 7.69446 45.5101 8.00726 46.9972 8.63287C48.4843 9.25848 49.6601 10.2386 50.5178 11.5663C51.3824 12.894 51.8112 14.5831 51.8112 16.6407C51.8112 17.9336 51.5553 19.0806 51.0366 20.0954C50.5178 21.0756 49.8815 21.9792 49.1206 22.8134C48.3598 23.6475 47.6197 24.4886 46.8935 25.3228C46.1672 26.1569 45.5793 27.0467 45.1297 27.992C44.6801 28.9304 44.528 30.0357 44.6663 31.2869H37.9848H37.9986ZM41.3117 44.0007C40.0321 44.0007 38.9462 43.528 38.0471 42.5896C37.1825 41.6512 36.7536 40.5112 36.7536 39.1904C36.7536 37.7932 37.1825 36.6463 38.0471 35.7357C38.9462 34.7973 40.0321 34.3246 41.3117 34.3246C42.6605 34.3246 43.7671 34.7973 44.6248 35.7357C45.4894 36.6393 45.9182 37.7932 45.9182 39.1904C45.9182 40.5876 45.4894 41.6512 44.6248 42.5896C43.7602 43.528 42.6536 44.0007 41.3117 44.0007Z" fill="#8976C3" stroke="#212529" stroke-width="1.5" stroke-linejoin="round"/>
</g>
<defs>
<clipPath id="clip0_84_2461">
<rect width="81.1809" height="55.1788" fill="white" transform="translate(1.40967 1.41058)"/>
</clipPath>
</defs>
</svg>
