<svg width="20" height="20" viewBox="0 0 20 20" fill="none" xmlns="http://www.w3.org/2000/svg">
<path d="M10 19.75C15.3848 19.75 19.75 15.3847 19.75 9.99997C19.75 4.61519 15.3848 0.249969 10 0.249969C4.61522 0.249969 0.25 4.61519 0.25 9.99997C0.25 15.3847 4.61522 19.75 10 19.75Z" fill="#ffffff"/>
<path fill-rule="evenodd" clip-rule="evenodd" d="M14.6351 6.73422C14.9282 7.02698 14.9284 7.50185 14.6356 7.79488L9.17051 13.2651C8.87843 13.5575 8.4049 13.5585 8.11159 13.2674L5.36619 10.5425C5.0722 10.2507 5.07042 9.77585 5.36221 9.48186C5.65401 9.18787 6.12888 9.18609 6.42287 9.47788L8.63769 11.6761L13.5745 6.73472C13.8672 6.44169 14.3421 6.44147 14.6351 6.73422Z" fill="#212529"/>
</svg>

