<svg width="14" height="14" viewBox="0 0 14 14" fill="none" xmlns="http://www.w3.org/2000/svg">
<path fill-rule="evenodd" clip-rule="evenodd" d="M0.469731 0.46967C0.762624 0.176777 1.2375 0.176777 1.53039 0.46967L13.5304 12.4696C13.8233 12.7625 13.8233 13.2374 13.5304 13.5303C13.2375 13.8232 12.7626 13.8232 12.4697 13.5303L0.469731 1.53033C0.176838 1.23744 0.176838 0.762563 0.469731 0.46967Z" fill="#8E8E8E"/>
<path fill-rule="evenodd" clip-rule="evenodd" d="M13.5304 0.46967C13.8233 0.762563 13.8233 1.23744 13.5304 1.53033L1.53033 13.5304C1.23744 13.8233 0.762563 13.8233 0.46967 13.5304C0.176777 13.2375 0.176777 12.7626 0.46967 12.4697L12.4697 0.46967C12.7626 0.176777 13.2375 0.176777 13.5304 0.46967Z" fill="#8E8E8E"/>
</svg>
