<svg width="25" height="24" viewBox="0 0 25 24" fill="none" xmlns="http://www.w3.org/2000/svg">
<path d="M17.6116 3.75278C18.1608 3.75264 18.5978 3.66533 18.9226 3.49086C19.2466 3.31614 19.5426 3.02065 19.8107 2.6044C19.7438 3.21065 19.5459 3.79715 19.2292 4.32696C18.9115 4.85735 18.471 5.28715 17.9077 5.61637C17.3435 5.94542 16.688 6.10996 15.9412 6.10996C15.3645 6.10817 14.7911 6.02674 14.2389 5.8682C13.6675 5.70702 12.9732 5.46526 12.1561 5.1429C11.3808 4.84729 10.7288 4.62232 10.2002 4.46798C9.69714 4.31737 9.17329 4.23929 8.64598 4.23631C7.96907 4.23631 7.4369 4.3874 7.04951 4.68962C6.66186 4.99193 6.46803 5.43182 6.46803 6.00922C6.46746 6.55976 6.6507 7.00971 7.01778 7.35906C7.38433 7.70827 7.86361 7.88287 8.45569 7.88287C8.97697 7.88301 9.47741 7.74869 9.95699 7.47993L10.0416 7.62095C9.57638 8.10448 8.96317 8.34624 8.20193 8.34624C7.52472 8.3461 6.95731 8.10773 6.49976 7.63104C6.04159 7.1541 5.8125 6.52619 5.8125 5.74733C5.81265 5.11591 5.9783 4.51151 6.30944 3.93411C6.64013 3.35643 7.13704 2.88969 7.80018 2.5339C8.46272 2.17797 9.25919 2 10.1896 2C10.7718 2.00049 11.3514 2.07504 11.9129 2.22161C12.4839 2.36924 13.2134 2.59755 14.1015 2.9066C14.9186 3.18867 15.5846 3.40021 16.0997 3.54123C16.5907 3.67906 17.0997 3.75026 17.6116 3.75278Z" fill="#ffffff"/>
<path d="M15.1482 8.44285C15.451 8.22794 15.7999 8.1205 16.1949 8.1205C16.6037 8.12036 16.9244 8.23453 17.157 8.46298C17.3896 8.69132 17.5059 8.98681 17.5059 9.34945C17.5056 9.68537 17.3858 9.9708 17.1464 10.2057C16.9062 10.4407 16.6313 10.5583 16.3218 10.5583C16.0111 10.5584 15.7538 10.4644 15.5499 10.2762C15.3456 10.088 15.2434 9.84626 15.2434 9.55093C15.2431 9.28229 15.3136 9.0674 15.4548 8.90623C15.187 9.02698 14.979 9.22174 14.831 9.4905C14.6834 9.75751 14.6072 10.055 14.609 10.3568C14.6097 10.4378 14.6168 10.5186 14.6301 10.5985C15.0947 11.0282 15.4578 11.458 15.7191 11.888C15.9799 12.3177 16.1103 12.8147 16.1103 13.3788C16.11 14.0101 15.9373 14.5473 15.5922 14.9906C15.2468 15.4339 14.7358 15.8839 14.0592 16.3404C13.5229 16.6898 13.1144 16.999 12.8328 17.3282C12.5503 17.6574 12.3464 17.9684 12.2195 18.3713C11.8812 17.7802 11.5036 17.3474 11.0883 17.0521C10.6721 16.7567 10.182 16.6384 9.61867 16.6384C8.96993 16.6384 8.43072 16.8034 8.00104 17.1931C7.57052 17.5827 7.3561 18.1221 7.3561 18.7538C7.35215 19.2374 7.49141 19.7122 7.75788 20.1239C8.02546 20.5402 8.40958 20.8693 8.9103 21.111C9.41074 21.3528 9.99929 21.4737 10.6759 21.4737C11.5638 21.4737 12.3532 21.242 13.0442 20.7786C13.7347 20.3153 14.2986 19.7008 14.7358 18.9352L14.9473 19.0359C14.7779 19.5326 14.4889 20.0094 14.0803 20.4663C13.6716 20.923 13.1605 21.2924 12.5473 21.5744C11.9335 21.8565 11.2604 21.9975 10.5279 21.9975C9.7664 21.997 9.08623 21.8391 8.48741 21.5241C7.89897 21.2183 7.40916 20.7655 7.07067 20.2145C6.72529 19.6568 6.5526 19.0222 6.5526 18.3106C6.5523 17.5315 6.71795 16.8331 7.04951 16.2154C7.38077 15.5975 7.83188 15.1174 8.40282 14.7749C8.96171 14.4357 9.61149 14.2573 10.2742 14.2611C11.5987 14.2611 12.7127 14.8898 13.6151 16.0583C13.8266 15.6824 13.9323 15.2996 13.9323 14.91C13.9323 14.4397 13.8055 14.0368 13.5517 13.7012C13.2977 13.3655 12.903 12.9626 12.3676 12.4924C11.7893 11.9819 11.3488 11.5185 11.046 11.1022C10.7423 10.686 10.5914 10.1755 10.5914 9.57108C10.5914 8.96666 10.75 8.45557 11.0671 7.97889C11.3841 7.50209 11.7611 7.11258 12.1984 6.81038C12.6351 6.50816 13.051 6.29661 13.446 6.17574C13.2077 6.42823 13.0051 6.70931 12.8434 7.01184C12.6812 7.31392 12.6002 7.59933 12.6002 7.86808C12.6002 8.31131 12.73 8.67133 12.9914 9.00697C13.2522 9.34275 13.6574 9.75239 14.2072 10.2359C14.2069 9.91371 14.288 9.58799 14.4504 9.2588C14.6071 8.9352 14.8472 8.65454 15.1482 8.44285Z" fill="#ffffff"/>
</svg>

