<svg width="24" height="25" viewBox="0 0 24 25" fill="none" xmlns="http://www.w3.org/2000/svg">
<path fill-rule="evenodd" clip-rule="evenodd" d="M18 2.75C15.9289 2.75 14.25 4.42893 14.25 6.5C14.25 6.83644 14.2943 7.16254 14.3774 7.47277L8.95107 10.1859C8.26454 9.31164 7.19786 8.75 6 8.75C3.92893 8.75 2.25 10.4289 2.25 12.5C2.25 14.5711 3.92893 16.25 6 16.25C7.19786 16.25 8.26454 15.6884 8.95107 14.8141L14.3774 17.5272C14.2943 17.8375 14.25 18.1636 14.25 18.5C14.25 20.5711 15.9289 22.25 18 22.25C20.0711 22.25 21.75 20.5711 21.75 18.5C21.75 16.4289 20.0711 14.75 18 14.75C16.8021 14.75 15.7355 15.3116 15.0489 16.1859L9.6226 13.4728C9.70569 13.1625 9.75 12.8364 9.75 12.5C9.75 12.1636 9.70569 11.8375 9.6226 11.5272L15.0489 8.81406C15.7355 9.68836 16.8021 10.25 18 10.25C20.0711 10.25 21.75 8.57107 21.75 6.5C21.75 4.42893 20.0711 2.75 18 2.75ZM15.75 6.5C15.75 5.25736 16.7574 4.25 18 4.25C19.2426 4.25 20.25 5.25736 20.25 6.5C20.25 7.74264 19.2426 8.75 18 8.75C16.7574 8.75 15.75 7.74264 15.75 6.5ZM3.75 12.5C3.75 11.2574 4.75736 10.25 6 10.25C7.24264 10.25 8.25 11.2574 8.25 12.5C8.25 13.7426 7.24264 14.75 6 14.75C4.75736 14.75 3.75 13.7426 3.75 12.5ZM18 16.25C16.7574 16.25 15.75 17.2574 15.75 18.5C15.75 19.7426 16.7574 20.75 18 20.75C19.2426 20.75 20.25 19.7426 20.25 18.5C20.25 17.2574 19.2426 16.25 18 16.25Z" fill="#909294"/>
</svg>

