<svg width="20" height="21" viewBox="0 0 20 21" fill="none" xmlns="http://www.w3.org/2000/svg">
<circle cx="10" cy="10.5" r="9.25" stroke="#909294" stroke-width="1.5"/>
<path d="M8.99212 12.42C8.91745 11.9507 8.93878 11.5347 9.05612 11.172C9.18412 10.7987 9.35478 10.4627 9.56812 10.164C9.79212 9.86533 10.0215 9.588 10.2561 9.332C10.4908 9.06533 10.6881 8.804 10.8481 8.548C11.0081 8.292 11.0881 8.02 11.0881 7.732C11.0881 7.476 11.0348 7.252 10.9281 7.06C10.8321 6.868 10.6881 6.71867 10.4961 6.612C10.3041 6.50533 10.0695 6.452 9.79212 6.452C9.47212 6.452 9.17345 6.52667 8.89612 6.676C8.62945 6.82533 8.37878 7.028 8.14412 7.284L7.12012 6.34C7.47212 5.93467 7.88812 5.604 8.36812 5.348C8.85878 5.08133 9.40812 4.948 10.0161 4.948C10.5708 4.948 11.0615 5.04933 11.4881 5.252C11.9255 5.444 12.2668 5.73733 12.5121 6.132C12.7575 6.52666 12.8801 7.01733 12.8801 7.604C12.8801 8.00933 12.7948 8.372 12.6241 8.692C12.4641 9.012 12.2615 9.31067 12.0161 9.588C11.7708 9.86533 11.5308 10.1427 11.2961 10.42C11.0721 10.6973 10.8908 10.996 10.7521 11.316C10.6135 11.636 10.5655 12.004 10.6081 12.42H8.99212ZM9.80812 16.052C9.47745 16.052 9.19478 15.9347 8.96012 15.7C8.73612 15.4547 8.62412 15.156 8.62412 14.804C8.62412 14.4413 8.73612 14.1427 8.96012 13.908C9.19478 13.6733 9.47745 13.556 9.80812 13.556C10.1495 13.556 10.4321 13.6733 10.6561 13.908C10.8908 14.1427 11.0081 14.4413 11.0081 14.804C11.0081 15.156 10.8908 15.4547 10.6561 15.7C10.4321 15.9347 10.1495 16.052 9.80812 16.052Z" fill="#909294" stroke="#909294" stroke-width="0.1"/>
</svg>
